<svg width="18" height="22" viewBox="0 0 18 22" fill="none" xmlns="http://www.w3.org/2000/svg">
<path d="M9.00001 0.0773926C6.81276 0.0799729 4.71584 0.949996 3.16923 2.49661C1.62261 4.04323 0.752589 6.14015 0.750009 8.32739C0.747389 10.1148 1.33124 11.8537 2.41201 13.2774C2.41201 13.2774 2.63701 13.5736 2.67376 13.6164L9.00001 21.0774L15.3293 13.6126C15.3623 13.5729 15.588 13.2774 15.588 13.2774L15.5888 13.2751C16.669 11.8521 17.2526 10.114 17.25 8.32739C17.2474 6.14015 16.3774 4.04323 14.8308 2.49661C13.2842 0.949996 11.1873 0.0799729 9.00001 0.0773926ZM9.00001 11.3274C8.40666 11.3274 7.82665 11.1514 7.3333 10.8218C6.83995 10.4922 6.45543 10.0236 6.22837 9.47544C6.00131 8.92727 5.9419 8.32406 6.05765 7.74212C6.17341 7.16018 6.45913 6.62563 6.87869 6.20607C7.29825 5.78651 7.83279 5.50079 8.41474 5.38504C8.99668 5.26928 9.59988 5.32869 10.1481 5.55575C10.6962 5.78282 11.1648 6.16733 11.4944 6.66068C11.8241 7.15403 12 7.73405 12 8.32739C11.999 9.12274 11.6826 9.88522 11.1202 10.4476C10.5578 11.01 9.79535 11.3264 9.00001 11.3274Z" fill="white"/>
</svg>
