<svg width="20" height="16" viewBox="0 0 20 16" fill="none" xmlns="http://www.w3.org/2000/svg">
<path d="M0.571533 4.465L9.70353 9.21443C9.79513 9.26206 9.89686 9.28692 10.0001 9.28692C10.1033 9.28692 10.2051 9.26206 10.2967 9.21443L19.4287 4.46586V12.7159C19.4287 13.4274 19.1565 14.112 18.6678 14.6292C18.1791 15.1464 17.5111 15.457 16.8007 15.4973L16.643 15.5016H3.35725C2.6457 15.5016 1.96111 15.2294 1.44391 14.7407C0.926705 14.252 0.616104 13.584 0.575819 12.8736L0.571533 12.7159V4.465ZM3.35725 0.0729981H16.643C17.3545 0.0729515 18.0391 0.345187 18.5563 0.833859C19.0735 1.32253 19.3841 1.99059 19.4244 2.701L19.4287 2.85871V3.01643L10.0001 7.91928L0.571533 3.01643V2.85871C0.571487 2.14717 0.843722 1.46257 1.33239 0.945372C1.82107 0.42817 2.48913 0.117568 3.19953 0.0772839L3.35725 0.0729981H16.643H3.35725Z" fill="white"/>
</svg>
