<svg width="16" height="17" viewBox="0 0 16 17" fill="none" xmlns="http://www.w3.org/2000/svg">
<path d="M14.997 16.7872C6.46601 16.7992 -0.00899063 10.2472 9.3707e-06 1.79023C9.3707e-06 1.23723 0.448009 0.787231 1.00001 0.787231H3.64001C4.13501 0.787231 4.55601 1.15123 4.62901 1.64123C4.80311 2.81629 5.14493 3.96028 5.64401 5.03823L5.74701 5.26023C5.8162 5.40962 5.83108 5.57847 5.78909 5.73766C5.7471 5.89685 5.65088 6.0364 5.51701 6.13223C4.69901 6.71623 4.38701 7.89123 5.02401 8.80723C5.82599 9.96056 6.82695 10.9619 7.98001 11.7642C8.89701 12.4002 10.072 12.0882 10.655 11.2712C10.7507 11.137 10.8904 11.0404 11.0498 10.9982C11.2092 10.956 11.3784 10.9709 11.528 11.0402L11.749 11.1422C12.827 11.6422 13.971 11.9842 15.146 12.1582C15.636 12.2312 16 12.6522 16 13.1482V15.7872C16 15.9186 15.9741 16.0488 15.9238 16.1701C15.8735 16.2915 15.7997 16.4018 15.7068 16.4947C15.6138 16.5876 15.5034 16.6612 15.382 16.7114C15.2606 16.7616 15.1304 16.7874 14.999 16.7872H14.997Z" fill="white"/>
</svg>
