<svg width="20" height="14" viewBox="0 0 20 14" fill="none" xmlns="http://www.w3.org/2000/svg">
<path d="M19.9687 1.81228C20.1387 2.29925 19.6164 3.43554 18.4018 5.22113C18.2317 5.46462 18.0131 5.78927 17.7459 6.19509C17.1872 6.95261 16.8713 7.45312 16.7985 7.69661C16.677 8.02126 16.7256 8.33239 16.9442 8.62998C17.0657 8.79231 17.3451 9.11696 17.7823 9.60394H17.8188V9.64452C18.8148 10.6455 19.4828 11.4977 19.8229 12.2012L19.8958 12.3635L19.9687 12.6679V13.0534L19.7136 13.3577L19.0941 13.4998L16.4341 13.5809C16.264 13.608 16.0636 13.5809 15.8328 13.4998C15.602 13.4186 15.4259 13.3374 15.3045 13.2563L15.0858 13.094C14.8672 12.9316 14.6243 12.6881 14.357 12.3635C14.0898 12.0388 13.853 11.7412 13.6465 11.4707C13.44 11.2002 13.2274 10.977 13.0088 10.8011C12.7902 10.6252 12.5958 10.5644 12.4258 10.6185C12.4015 10.6185 12.3711 10.632 12.3347 10.6591C12.2982 10.6861 12.2375 10.747 12.1525 10.8417C12.0674 10.9364 11.9946 11.0514 11.9338 11.1866C11.8731 11.3219 11.8184 11.518 11.7699 11.7751C11.7213 12.0321 11.697 12.3364 11.697 12.6881C11.697 12.7964 11.6848 12.8978 11.6605 12.9925C11.6362 13.0872 11.612 13.1616 11.5877 13.2157L11.5512 13.2563C11.4055 13.4186 11.2111 13.4998 10.9682 13.4998H9.80214C9.29199 13.5539 8.77577 13.4998 8.25348 13.3374C7.73118 13.1751 7.27569 12.9655 6.88701 12.7084C6.49832 12.4514 6.14608 12.1944 5.83027 11.9374C5.51446 11.6804 5.27154 11.4572 5.10149 11.2678L4.84641 10.9837C4.77353 10.9296 4.67636 10.8214 4.5549 10.6591C4.43343 10.4967 4.18443 10.145 3.8079 9.60394C3.43136 9.06285 3.06089 8.48118 2.6965 7.85893C2.33211 7.23668 1.90698 6.41829 1.42113 5.40375C0.935273 4.38921 0.485856 3.34085 0.0728784 2.25867C0.0242928 2.1234 0 2.01518 0 1.93402C0 1.85286 0.0121464 1.78522 0.0364392 1.73111L0.0728784 1.69053C0.17005 1.5282 0.364392 1.44704 0.655905 1.44704H3.5346C3.60748 1.44704 3.68036 1.46733 3.75324 1.50791L3.93543 1.60937L3.97187 1.64995C4.09334 1.73111 4.17836 1.85286 4.22695 2.01518C4.3727 2.39394 4.53668 2.793 4.71888 3.21234C4.90107 3.63168 5.04075 3.94957 5.13793 4.16601L5.28368 4.49066C5.50232 4.95059 5.70273 5.34964 5.88493 5.68782C6.06713 6.026 6.2311 6.28978 6.37686 6.47916C6.52262 6.66854 6.66837 6.81734 6.81413 6.92556C6.95989 7.03377 7.08135 7.08788 7.17852 7.08788C7.27569 7.08788 7.37286 7.07436 7.47003 7.0473L7.50647 6.98643L7.63401 6.72265L7.77977 6.19509L7.87087 5.26171V3.80077C7.84657 3.50318 7.81013 3.22587 7.76155 2.96885C7.71296 2.71183 7.66438 2.52922 7.61579 2.421L7.57935 2.29925C7.4093 2.02871 7.10564 1.85286 6.66837 1.77169C6.59549 1.77169 6.61979 1.677 6.74125 1.48762C6.86271 1.35235 6.99632 1.24413 7.14208 1.16297C7.50647 0.946535 8.33243 0.851844 9.61995 0.878899C10.1787 0.878899 10.6524 0.933008 11.0411 1.04123C11.1625 1.06828 11.2719 1.11562 11.369 1.18326C11.4662 1.2509 11.5391 1.34559 11.5877 1.46733C11.6362 1.58908 11.6727 1.71082 11.697 1.83257C11.7213 1.95431 11.7334 2.13016 11.7334 2.36013V2.98914C11.7091 3.20558 11.697 3.47612 11.697 3.80077V4.77473C11.697 4.8559 11.6909 5.01822 11.6788 5.26171C11.6666 5.5052 11.6605 5.69458 11.6605 5.82985C11.6605 5.96513 11.6727 6.12069 11.697 6.29654C11.7213 6.4724 11.7638 6.62119 11.8245 6.74294C11.8853 6.86468 11.9642 6.95261 12.0614 7.00672C12.11 7.03377 12.1646 7.05406 12.2253 7.06759C12.2861 7.08112 12.3772 7.04054 12.4986 6.94585C12.6201 6.85116 12.7537 6.71589 12.8995 6.54003C13.0452 6.36418 13.2274 6.1004 13.4461 5.74869C13.6647 5.39698 13.8955 4.99117 14.1384 4.53124C14.5514 3.71961 14.9279 2.84034 15.268 1.89344C15.2923 1.83933 15.3227 1.77846 15.3591 1.71082C15.3956 1.64319 15.4381 1.59584 15.4867 1.56879H15.5231L15.5595 1.5282L15.7053 1.48762H15.9239L18.9119 1.44704C19.1792 1.41999 19.4039 1.43351 19.5861 1.48762C19.7683 1.54173 19.8715 1.60937 19.8958 1.69053L19.9687 1.81228Z" fill="white"/>
</svg>
