<svg width="20" height="16" viewBox="0 0 20 16" fill="none" xmlns="http://www.w3.org/2000/svg">
<path d="M19.5834 3.09723C19.4701 2.66913 19.2495 2.28154 18.945 1.97568C18.6319 1.66042 18.2482 1.4349 17.83 1.32042C16.265 0.883285 9.99503 0.883285 9.99503 0.883285C7.38113 0.85177 4.76788 0.990383 2.17003 1.29834C1.75185 1.42128 1.36883 1.65184 1.05503 1.9695C0.746693 2.28389 0.523359 2.67157 0.406693 3.09634C0.126437 4.6963 -0.00973061 6.32086 2.60381e-05 7.94812C-0.00997396 9.57391 0.125859 11.1979 0.406693 12.7999C0.520859 13.2229 0.743359 13.6088 1.05253 13.9205C1.36169 14.2323 1.74669 14.4575 2.17003 14.5767C3.75586 15.0129 9.99503 15.0129 9.99503 15.0129C12.6122 15.0445 15.2288 14.9059 17.83 14.5979C18.2482 14.4834 18.6319 14.2579 18.945 13.9426C19.2534 13.6309 19.4725 13.2432 19.5825 12.8211C19.8701 11.2217 20.0099 9.59651 20 7.96843C20.0217 6.33345 19.882 4.70056 19.5834 3.09634V3.09723ZM8.00169 10.9719V4.92525L13.2184 7.949L8.00169 10.9719Z" fill="white"/>
</svg>
